<?xml version="1.0" standalone="no"?>
<!DOCTYPE svg PUBLIC "-//W3C//DTD SVG 20010904//EN"
 "http://www.w3.org/TR/2001/REC-SVG-20010904/DTD/svg10.dtd">
<svg version="1.0" xmlns="http://www.w3.org/2000/svg"
 width="200.000000pt" height="200.000000pt" viewBox="0 0 200.000000 200.000000"
 preserveAspectRatio="xMidYMid meet">
<metadata>
Created by potrace 1.11, written by Peter Selinger 2001-2013
</metadata>
<g transform="translate(0.000000,200.000000) scale(0.100000,-0.100000)"
fill="#000000" stroke="none">
<path d="M424 1549 c-11 -6 -28 -23 -37 -39 -15 -25 -17 -71 -17 -405 0 -410
1 -419 57 -444 15 -7 107 -11 244 -11 l220 0 -6 -22 c-22 -80 -20 -78 -109
-78 -91 0 -126 -15 -126 -55 0 -54 4 -55 350 -55 346 0 350 1 350 55 0 40 -35
55 -126 55 -89 0 -87 -2 -109 78 l-6 22 220 0 c137 0 229 4 244 11 56 25 57
33 57 449 l0 382 -34 34 -34 34 -559 -1 c-353 0 -566 -4 -579 -10z m1066 -444
l0 -315 -490 0 -490 0 0 315 0 315 490 0 490 0 0 -315z"/>
</g>
</svg>
